<?xml version="1.0" encoding="UTF-8"?>
<svg id="Calque_2" data-name="Calque 2" xmlns="http://www.w3.org/2000/svg" viewBox="0 0 305.01 343.72">
  <defs>
    <style>
      .cls-1 {
        fill: #fff;
      }
    </style>
  </defs>
  <g id="Calque_1-2" data-name="Calque 1">
    <g>
      <path class="cls-1" d="m107.3,71.15c-.33,3.7-.72,7.4-2.18,10.91-.31.75-1.23,1.78-.42,2.38.91.67,1.4-.66,1.98-1.18,3.91-3.51,7.67-7.19,11.68-10.57,3.11-2.62,6.42-5.07,9.86-7.23,1.48-.93,3.27-1.83,5.25-1.62,1.57.17,3.08-.38,4.66-.45,2.78-.12,5.02.91,7.23,2.32.98.63,2.06,1.11,3.02,1.76,1.96,1.32,3.47,2.81,4.07,5.37.89,3.81.78,7.52.19,11.29-.05.35-.13.69-.14,1.04,0,.45-.17,1,.31,1.29.54.32.85-.2,1.17-.5,6.02-5.52,12.21-10.86,18.6-15.93,4.65-3.69,9.44-7.23,14.73-10.08,3.78-2.03,7.64-3.75,11.8-4.55,3.29-.63,6.79-.04,10.06-.54,3.78-.58,6.04,2.02,8.81,3.31,1.84.86,2.98,3.31,4.33,5.13,3.42,4.65,3.77,9.97,3.23,15.46-.61,6.25-2.08,12.32-4.43,18.11-1.32,3.26-2.75,6.5-4.21,9.71-.23.49-.51.98-.12,1.47.45.55,1.02.17,1.44-.04,3.58-1.73,7.18-3.4,10.68-5.28,5.84-3.13,11.32-6.94,17.67-9.09,4.88-1.65,8.94-4.71,13.2-7.5,4.3-2.82,8.62-5.59,12.79-8.59,7.3-5.26,14.11-11.14,21.1-16.79.92-.74,1.93-1.83,2.44.38.11.48.57.54,1.01.4.56-.18,1.1-.4,1.66-.58,2.33-.77,2.52-.7,3.38,1.42.38.93.58,1.85,2.03,1.58.88-.16.76.67.47,1.23-.33.66-.56,1.21.09,1.88.65.68-.13,1.31-.39,1.9-.54,1.26-.97,2.39-1.03,3.9-.06,1.54-.41,3.42-2.03,4.76-3.95,3.27-7.95,6.51-11.75,9.95-2.89,2.62-5.95,5.02-9.06,7.28-2.8,2.04-5.57,4.17-8.49,6.08-3.95,2.6-8,5.02-12.08,7.37-2.33,1.35-4.9,2.54-7.06,3.99-3.18,2.13-6.74,3.43-9.85,5.57-.43.3-.85.65-1.33.83-4.31,1.64-8.2,4.15-12.42,5.97-6.79,2.94-13.76,5.43-20.67,8.09-.82.31-1.61.72-2.45.92-2.13.52-2.24,2.56-2.99,4.02-1.51,2.95-2.67,6.07-4.12,9.05-2.9,5.96-5.93,11.86-8.83,17.82-1.89,3.87-3.5,7.89-5.51,11.7-1.91,3.61-3.32,7.5-5.49,10.93-1.36,2.15-1.93,4.59-3.21,6.72-.23.38-.46.88-.04,1.3.39.39.89.24,1.32.1,4.69-1.6,9.36-3.22,14.05-4.82,5.58-1.9,11-4.21,16.49-6.34,1.85-.72,3.7-1.45,5.48-2.32,2.35-1.15,4.77-1.92,7.4-1.89,1.2.01,2.14-.44,3.19-1.06,1.39-.81,2.94-1.75,4.82-.67,1.08.62,2.42.76,3.6,1.28,1.14.5,1.4.9.53,1.84-.68.73-.89,1.61-.07,2.32.98.85.28,1.4-.16,2.07-2.29,3.44-5.25,6.23-8.87,8.14-1.76.93-3.51,1.97-5.5,2.5-2.83.76-5.29,2.41-8.01,3.47-2.5.97-5.07,1.77-7.49,2.92-5.37,2.55-11.14,4.05-16.51,6.58-.31.15-.66.32-.98.31-2.33-.04-4.25,1.21-6.32,2-.66.25-1.3.59-2.02.53-1.22-.1-2.09.4-2.89,1.3-1.23,1.39-3.12,1.44-4.7,1.62-3.61.42-5.27,2.68-6.58,5.64-1.08,2.44-2.41,4.79-3.55,7.18-1.87,3.94-3.95,7.79-5.72,11.78-1.43,3.24-3.21,6.32-4.64,9.56-1.81,4.1-3.76,8.14-5.38,12.33-1.27,3.27-3.02,6.42-4.29,9.67-1.33,3.38-2.59,6.84-3.79,10.29-2.1,6.01-4.28,12-5.9,18.14-.97,3.69-2.66,7.25-2.63,11.19,0,.28-.09.58-.19.85-1.26,3.34-1.4,6.79-1.16,10.3.13,1.85,1.24,2.28,2.89,1.38,5.69-3.1,9.83-8.02,14.51-12.3,8.32-7.61,16.21-15.67,24.22-23.61,7.38-7.31,14.91-14.49,22.37-21.72,3.98-3.86,7.92-7.75,11.94-11.57,4.74-4.5,9.56-8.91,14.31-13.4,4.58-4.33,9.03-8.82,13.96-12.75,2.74-2.19,5.38-4.48,8.05-6.73,1.11-.94,2.54-1.52,3.42-2.79.18-.26.59-.42.77-.21,1.06,1.25,1.69.1,2.47-.37,1.69-1.03,3.63-1.59,5.24-2.81.66-.5.93.07,1.29.62.71,1.08.75,2.61,2.17,3.23.39.17.35.65.07.89-1.04.88-.67,2.15-1.02,3.2-.6,1.8-1.83,3.33-3.04,4.79-1.3,1.57-2.71,3.05-4.06,4.58-.23.26-.52.58-.54.88-.25,5.03-4.49,7.23-7.43,10.25-2.68,2.76-5.63,5.38-8.08,8.25-2.13,2.5-4.73,4.51-6.77,7.13-2,2.56-4.51,4.92-7.27,6.91-1.42,1.03-2.48,2.63-3.8,3.91-1.93,1.86-3.93,3.67-5.75,5.61-2.58,2.73-5.2,5.48-7.92,8-2.35,2.18-3.96,5-6.9,6.8-2.43,1.49-4.28,4.23-6.25,6.56-1.78,2.11-3.75,4.11-5.68,6.11-2.66,2.77-5.7,5.18-8.02,8.26-1.35,1.78-3.32,2.83-4.87,4.4-2.76,2.79-5.68,5.42-8.46,8.2-2.43,2.43-5.09,4.63-7.65,6.92-2.38,2.13-5.07,3.82-7.46,5.93-2.24,1.98-4.81,3.66-7.62,4.9-1.75.77-3.48,1.41-5.37,1.81-3.44.74-6.71.33-10.04-.47-1.35-.33-1.75-1.85-3.12-2.11-.62-.11-1.15-.38-1.84-.19-3.85,1.03-8.15-.73-10.23-4.11-.34-.56-.79-1.12-.7-1.76.51-3.49-1.27-6.81-.7-10.31.54-3.4.77-6.84,1.52-10.21,1.91-8.61,3.98-17.18,7.02-25.46,2.17-5.91,4.38-11.81,6.82-17.63,1.39-3.33,2.45-6.8,3.86-10.14,1.87-4.4,3.69-8.82,5.94-13.05.82-1.54,1.24-3.23,1.98-4.82,2.76-5.93,5.43-11.89,8.41-17.71.96-1.87,1.73-3.81,2.66-5.68.5-1,.2-1.42-.83-1.76-2.41-.81-5.02-.87-7.28-2.29-1.3-.82-2.53-1.63-3.52-2.81-.88-1.04-.81-1.92.4-2.58.89-.49,1.49-1.22,1.62-2.17.25-1.78,1.37-3.21,1.79-4.92.31-1.25,1.28-1.93,2.61-1.95,1.37-.02,2.64-.37,3.92-.85,2.46-.92,4.95-.48,7.4.04,2.68.57,2.62.57,3.83-1.87.91-1.83,2.08-3.51,2.96-5.37,2.77-5.82,5.49-11.67,8.46-17.39,2.15-4.14,4.18-8.33,6.2-12.52.67-1.4,1.51-2.75,1.65-4.38.04-.5.29-1.03.59-1.45,2.69-3.86,3.43-8.64,5.94-12.59.79-1.24,2.1-2.19,2.13-3.93.01-1.02.03-1.52-1.23-1.36-6.56.85-13.07-.01-19.59-.68-.85-.09-1.59-.4-2.33-.72-4.55-1.93-9.56-2.76-13.7-5.7-.59-.42-1.42-.51-2.14-.76-.65-.23-1.06-.03-1.47.54-4.59,6.39-9.23,12.73-13.27,19.51-1.4,2.35-2.52,4.9-4.52,7-1.11,1.16-1.85,2.97-3.08,4.29-1.09,1.18-2.46,1.7-3.96,1.24-1.32-.4-2.6-.6-3.96-.52-1.23.07-2.09-.39-2.56-1.66-.34-.91-.88-1.77-1.47-2.55-.62-.82-1.37-1.1-2.4-.37-1.58,1.12-2.26.87-4.46-1.17-1.12-1.03-.44-2,.04-3.01,3.58-7.55,8.54-14.25,12.93-21.31,3.41-5.49,6.01-11.44,8.37-17.48,2.7-6.9,5.2-13.86,7.46-20.91.3-.95.61-1.89.86-2.85.15-.59.62-1.37-.09-1.76-.76-.41-1.27.39-1.73.85-1.96,1.92-3.81,3.95-5.81,5.83-4.8,4.51-9.39,9.25-13.72,14.18-3.97,4.52-8.08,8.91-12.14,13.32-4.27,4.63-8.18,9.55-12.42,14.2-3.57,3.92-6.64,8.28-10.14,12.25-3.78,4.29-6.91,9.14-11.14,13.03-2.07,1.9-4.3,3.11-7.56,2.5-2.67-.51-4.28-1.67-5.6-3.8-.96-1.55-4.29-2.41-5.94-1.63-.58.28-1.13.29-1.64-.11-.53-.42-.57-.99-.39-1.59.08-.28.2-.55.34-.81,2.37-4.4,5.15-8.52,7.95-12.65,1.96-2.88,4.42-5.57,5.95-8.52,1.75-3.38,4.74-5.83,6.08-9.33.91-2.37,2.03-4.65,3.19-6.88,3.17-6.09,6.76-11.97,9.93-18.06,2.29-4.39,4.19-8.99,6.25-13.5.27-.58.45-1.21.61-1.83.13-.49.42-1.07-.19-1.42-.59-.34-.98.15-1.37.49-2.99,2.69-6,5.35-8.94,8.1-3.53,3.31-7.17,6.54-10.44,10.1-4.14,4.5-8.45,8.85-12.52,13.41-2.68,3-5.33,6.02-7.91,9.08-3.42,4.06-6.54,8.36-9.77,12.58-1.17,1.53-2.25,3.12-3.45,4.62-2.3,2.89-3.6,6.43-5.83,9.32-1.58,2.04-3.36,4.3-6.4,4.38-1.36.04-2.51.97-3.93.72-1.01-.18-1.93-.31-2.35-1.48-.4-1.1-1.27-1.38-2.42-1.16-2.6.48-3.93-.62-3.89-3.22.02-1.23-.08-2.38-.5-3.59-.77-2.26.4-4.18,1.51-6.07,2.83-4.8,6.41-9.04,9.91-13.34,5.71-7.02,11.39-14.06,17.51-20.72,3.94-4.29,8.17-8.31,12.13-12.58,3.13-3.37,6.38-6.66,9.74-9.75,3.11-2.86,6.3-5.71,9.6-8.41,3.79-3.11,7.36-6.53,11.41-9.25,3.58-2.41,6.79-5.3,10.41-7.59,2.5-1.58,5.49-2.3,8.4-3.14,4.99-1.44,8.55.72,12.03,3.69,1.05.89,2.82,1.2,3.08,2.68.33,1.88,1.74,3.5,1.33,5.56Zm95.94,5.84c-.04-.99.1-1.97-.13-2.97-.22-.93-.64-1.12-1.49-.73-4.37,2.03-8.33,4.79-12.06,7.72-3.12,2.45-6.19,5.06-9.13,7.79-2.81,2.6-5.88,4.94-8.6,7.67-2.55,2.56-5.21,5.02-7.87,7.47-2.4,2.21-4.19,4.99-6.69,7.12-1.86,1.59-3.52,3.4-5.1,5.28-.9,1.08-.65,1.74.4,2.56,2.73,2.13,6,2.84,9.23,3.5,1.91.39,3.85,1.01,5.88.75,6.66-.86,13.28-1.91,19.79-3.61,1.11-.29,1.67-.91,2.06-1.9.64-1.61,1.29-3.23,2.05-4.79,2.36-4.82,4.36-9.8,6.35-14.78,1.32-3.31,1.8-6.86,3.02-10.22,1.26-3.48,2.4-7.06,2.3-10.87Z"/>
      <path class="cls-1" d="m98.61,215.3c-.46,3.49-.74,6.76-1.32,10.05-.69,3.9-1.71,7.65-3.35,11.16-2.73,5.88-6.09,11.46-10.54,16.22-2.75,2.94-5.2,6.27-8.8,8.33-5.21,2.97-10.14,6.44-15.67,8.84-1.77.77-3.66.68-5.49.81-1.59.12-3.07.72-4.62.83-5.51.42-10.98.22-16.16-2.01-.78-.33-1.52-.95-2.05-1.61-1.92-2.39-4.04-4.65-5.02-7.69-.41-1.26-1.13-2.43-1.68-3.65-1.72-3.8-1.45-7.96-2.13-11.95-.78-4.54.69-8.89,1.12-13.34.36-3.74,1.44-7.31,2.99-10.54,2.34-4.9,4.46-9.96,7.87-14.37,2.04-2.64,3.99-5.41,5.88-8.2,2.65-3.9,5.92-7.22,10.12-9.46,2.67-1.43,5.63-1.87,8.66-1.74.99.04,1.99.08,2.98.12,2.31.09,3.48-.95,3.5-3.27,0-.85,0-1.6,1.03-1.66,1.18-.07,1.55-.82,1.47-1.76-.1-1.21.5-1.42,1.5-1.6,1.09-.19,2.35,0,3.18-1.15.36-.5,1.02-.14,1.42.18,1.16.91,2.54,1.06,3.84.77,2.72-.61,4.83.49,6.71,2.16,4.29,3.82,7.35,8.46,9.2,13.94,1.22,3.61,3,7.01,3.96,10.72.85,3.29.9,6.69,1.39,9.84Zm-48.29,40.57c2.1.37,4.41-.21,6.65-1.41,4.88-2.64,9.81-5.16,12.46-10.47,2.03-4.06,3.99-8.15,5.39-12.48.87-2.69,1.03-5.5,1.4-8.27.68-5.04-.08-10.01-1.29-14.91-.58-2.31-.42-4.8-1.58-6.95-.39-.73-.72-2.18-2.05-.75-.42.45-1.06.17-1.48-.08-2.38-1.39-5.1-1.65-7.7-2.21-2.35-.5-4.57-.45-6.74,1.3-2.27,1.84-3.64,4.36-5.75,6.3-1.87,1.73-2.92,4.23-4.53,6.2-2.98,3.65-4.82,7.88-6.89,12.02-.23.45-.4,1.02-.35,1.51.26,2.67-1.03,5.11-.97,7.82.05,2.17-.02,4.4.23,6.55.32,2.76,1.12,5.45,2.15,8.08,1.91,4.85,5.49,7.53,11.06,7.74Z"/>
      <path class="cls-1" d="m237.65,66.89c-2.11-2.08-4.89-.75-7.45-1.18-.71-.12-1.08-.61-1.33-1.25-.68-1.71-1.57-3.35-2.03-5.11-.32-1.25.78-2.25,1.8-2.64,2.5-.99,4.32-2.68,5.92-4.75,1.12-1.44,2.77-2.4,4.29-3.18,2.6-1.34,4.33-3.52,6.26-5.48,4.65-4.72,8.87-9.85,13.28-14.8,3.55-3.99,7.21-7.91,10.45-12.18.99-1.31,1.98-2.62,3.21-3.7,1.82-1.59,2.89-3.79,4.58-5.48,1-1,1.92-1.77,3.51-1.94,2.65-.28,4.64-2.03,6.38-3.98,1.53-1.73,2.19-1.64,2.95.46.08.22.11.53.27.64,2.04,1.3,2.22,3.64,3.18,5.55.49.99.38,1.84-.24,2.6-.78.96-1.14,2.04-1.14,3.23,0,1.14-.62,1.99-1.2,2.86-3.23,4.88-6.46,9.76-9.74,14.61-.88,1.3-1.95,2.47-2.98,3.66-2.38,2.78-4.8,5.53-7.19,8.31-3.49,4.07-7.05,8.07-10.84,11.86-2.97,2.97-6.08,5.79-9.49,8.25-.33.24-.66.55-1.03.65-3.7.99-7.41,1.95-11.44,3Z"/>
      <path class="cls-1" d="m36.3,311.79c-2.1,0-4.17-.1-6.23.02-2.87.17-5.62-.39-8.23-1.39-1.55-.59-2.75-1.86-3.11-3.67-.1-.5-.05-.97.31-1.31,1.84-1.71,2.05-4.27,3.31-6.3.68-1.09,1.3-2.05,2.61-2.38,2.2-.56,4.21-2.17,6.68-1.14.05.02.13.01.17-.02,2.83-2.41,6.2-.42,9.27-1.16,5.24-1.27,10.59-2.01,15.56-4.35,5.13-2.41,10.65-3.8,16.09-5.29,3.04-.83,6.15-.03,9.08,1.11,1.73.67,1.65,2.65,1.65,3.74,0,1.11-.71,2.58-1.44,3.85-1.78,3.11-5.37,3.08-7.65,5.15-.34.31-.9.42-1.13.78-2.14,3.24-5.83,3.82-9,5.27-.99.45-2.02.89-3.06,1.28-4.8,1.78-9.75,2.98-14.7,4.24-3.38.86-6.87.55-10.16,1.56Z"/>
    </g>
  </g>
</svg>